<svg xmlns="http://www.w3.org/2000/svg" viewBox="0 0 512 512">
  <rect width="512" height="512" fill="none"/>
  <path d="M428 224H288a48 48 0 0 1-48-48V36a12 12 0 0 0-12-12H144a64 64 0 0 0-64 64v336a64 64 0 0 0 64 64h224a64 64 0 0 0 64-64V236a12 12 0 0 0-12-12z" fill="#18a058"/>
  <path d="M419.22 188.59L275.41 44.78a2 2 0 0 0-3.41 1.41V176a16 16 0 0 0 16 16h129.81a2 2 0 0 0 1.41-3.41z" fill="#18a058"/>
  <path d="M280 352h-96a16 16 0 0 1 0-32h96a16 16 0 0 1 0 32zm48-80h-144a16 16 0 0 1 0-32h144a16 16 0 0 1 0 32z" fill="white"/>
</svg>